<?xml version="1.0" encoding="UTF-8" standalone="no"?>
<!DOCTYPE svg PUBLIC "-//W3C//DTD SVG 1.1//EN"
 "http://www.w3.org/Graphics/SVG/1.1/DTD/svg11.dtd">
<!-- Generated by graphviz version 12.2.0 (20241103.1931)
 -->
<!-- Title: G Pages: 1 -->
<svg width="1530pt" height="1642pt"
 viewBox="0.00 0.00 1530.25 1642.25" xmlns="http://www.w3.org/2000/svg" xmlns:xlink="http://www.w3.org/1999/xlink">
<g id="graph0" class="graph" transform="scale(1 1) rotate(0) translate(4 1638.25)">
<title>G</title>
<polygon fill="white" stroke="none" points="-4,4 -4,-1638.25 1526.25,-1638.25 1526.25,4 -4,4"/>
<g id="clust2" class="cluster">
<title>cluster_87c95147</title>
<polygon fill="none" stroke="black" stroke-dasharray="1,5" points="85,-122.25 85,-240.25 804.5,-240.25 804.5,-122.25 85,-122.25"/>
<text text-anchor="middle" x="444.75" y="-222.95" font-family="Times,serif" font-size="14.00">File: _base</text>
</g>
<g id="clust3" class="cluster">
<title>cluster_6c11551e</title>
<polygon fill="none" stroke="black" stroke-dasharray="1,5" points="93,-130.25 93,-207.25 796.5,-207.25 796.5,-130.25 93,-130.25"/>
<text text-anchor="middle" x="444.75" y="-189.95" font-family="Times,serif" font-size="14.00">Class: SSHeuristicsManager</text>
</g>
<g id="clust4" class="cluster">
<title>cluster_1aa245cc</title>
<polygon fill="none" stroke="black" stroke-dasharray="1,5" points="864,-968.25 864,-1140.25 1514.25,-1140.25 1514.25,-968.25 864,-968.25"/>
<text text-anchor="middle" x="1189.12" y="-1122.95" font-family="Times,serif" font-size="14.00">File: _checkbox_events</text>
</g>
<g id="clust5" class="cluster">
<title>cluster_1ccd7994</title>
<polygon fill="none" stroke="black" stroke-dasharray="1,5" points="872,-976.25 872,-1107.25 1506.25,-1107.25 1506.25,-976.25 872,-976.25"/>
<text text-anchor="middle" x="1189.12" y="-1089.95" font-family="Times,serif" font-size="14.00">Class: CheckboxEventProcessor</text>
</g>
<g id="clust6" class="cluster">
<title>cluster_d41591fe</title>
<polygon fill="none" stroke="black" stroke-dasharray="1,5" points="867.38,-788.25 867.38,-960.25 1262.75,-960.25 1262.75,-788.25 867.38,-788.25"/>
<text text-anchor="middle" x="1065.06" y="-942.95" font-family="Times,serif" font-size="14.00">File: _keyboard_events</text>
</g>
<g id="clust7" class="cluster">
<title>cluster_30629c64</title>
<polygon fill="none" stroke="black" stroke-dasharray="1,5" points="875.38,-796.25 875.38,-927.25 1254.75,-927.25 1254.75,-796.25 875.38,-796.25"/>
<text text-anchor="middle" x="1065.06" y="-909.95" font-family="Times,serif" font-size="14.00">Class: KeyboardEventsProcessor</text>
</g>
<g id="clust8" class="cluster">
<title>cluster_97a7d3ca</title>
<polygon fill="none" stroke="black" stroke-dasharray="1,5" points="51.88,-1085.25 51.88,-1203.25 215.12,-1203.25 215.12,-1085.25 51.88,-1085.25"/>
<text text-anchor="middle" x="133.5" y="-1185.95" font-family="Times,serif" font-size="14.00">File: _main</text>
</g>
<g id="clust9" class="cluster">
<title>cluster_97ff1fa4</title>
<polygon fill="none" stroke="black" stroke-dasharray="1,5" points="59.88,-1093.25 59.88,-1170.25 207.12,-1170.25 207.12,-1093.25 59.88,-1093.25"/>
<text text-anchor="middle" x="133.5" y="-1152.95" font-family="Times,serif" font-size="14.00">Class: MetricsProcessor</text>
</g>
<g id="clust10" class="cluster">
<title>cluster_cde372e6</title>
<polygon fill="none" stroke="black" stroke-dasharray="1,5" points="333.62,-1418.25 333.62,-1590.25 756.88,-1590.25 756.88,-1418.25 333.62,-1418.25"/>
<text text-anchor="middle" x="545.25" y="-1572.95" font-family="Times,serif" font-size="14.00">File: _main</text>
</g>
<g id="clust11" class="cluster">
<title>cluster_fa8d5954</title>
<polygon fill="none" stroke="black" stroke-dasharray="1,5" points="341.62,-1426.25 341.62,-1557.25 748.88,-1557.25 748.88,-1426.25 341.62,-1426.25"/>
<text text-anchor="middle" x="545.25" y="-1539.95" font-family="Times,serif" font-size="14.00">Class: HeuristicAnalyzer</text>
</g>
<g id="clust12" class="cluster">
<title>cluster_1033f708</title>
<polygon fill="none" stroke="black" stroke-dasharray="1,5" points="564,-1292.25 564,-1410.25 751.25,-1410.25 751.25,-1292.25 564,-1292.25"/>
<text text-anchor="middle" x="657.62" y="-1392.95" font-family="Times,serif" font-size="14.00">File: _main</text>
</g>
<g id="clust13" class="cluster">
<title>cluster_e59d9e98</title>
<polygon fill="none" stroke="black" stroke-dasharray="1,5" points="572,-1300.25 572,-1377.25 743.25,-1377.25 743.25,-1300.25 572,-1300.25"/>
<text text-anchor="middle" x="657.62" y="-1359.95" font-family="Times,serif" font-size="14.00">Class: MouseEventAnalyzer</text>
</g>
<g id="clust14" class="cluster">
<title>cluster_4257acf7</title>
<polygon fill="none" stroke="black" stroke-dasharray="1,5" points="867.38,-1148.25 867.38,-1374.25 1280,-1374.25 1280,-1148.25 867.38,-1148.25"/>
<text text-anchor="middle" x="1073.69" y="-1356.95" font-family="Times,serif" font-size="14.00">File: _main</text>
</g>
<g id="clust15" class="cluster">
<title>cluster_bb3d08b2</title>
<polygon fill="none" stroke="black" stroke-dasharray="1,5" points="875.38,-1156.25 875.38,-1341.25 1272,-1341.25 1272,-1156.25 875.38,-1156.25"/>
<text text-anchor="middle" x="1073.69" y="-1323.95" font-family="Times,serif" font-size="14.00">Class: CheckboxPathAnalyzer</text>
</g>
<g id="clust16" class="cluster">
<title>cluster_05c5399b</title>
<polygon fill="none" stroke="black" stroke-dasharray="1,5" points="824.5,-1508.25 824.5,-1626.25 1035.75,-1626.25 1035.75,-1508.25 824.5,-1508.25"/>
<text text-anchor="middle" x="930.12" y="-1608.95" font-family="Times,serif" font-size="14.00">File: _main</text>
</g>
<g id="clust17" class="cluster">
<title>cluster_ef01402b</title>
<polygon fill="none" stroke="black" stroke-dasharray="1,5" points="832.5,-1516.25 832.5,-1593.25 1027.75,-1593.25 1027.75,-1516.25 832.5,-1516.25"/>
<text text-anchor="middle" x="930.12" y="-1575.95" font-family="Times,serif" font-size="14.00">Class: MovementCountAnalyzer</text>
</g>
<g id="clust18" class="cluster">
<title>cluster_ddf10e24</title>
<polygon fill="none" stroke="black" stroke-dasharray="1,5" points="848.88,-1382.25 848.88,-1500.25 1011.38,-1500.25 1011.38,-1382.25 848.88,-1382.25"/>
<text text-anchor="middle" x="930.12" y="-1482.95" font-family="Times,serif" font-size="14.00">File: _main</text>
</g>
<g id="clust19" class="cluster">
<title>cluster_eb2ac2df</title>
<polygon fill="none" stroke="black" stroke-dasharray="1,5" points="856.88,-1390.25 856.88,-1467.25 1003.38,-1467.25 1003.38,-1390.25 856.88,-1390.25"/>
<text text-anchor="middle" x="930.12" y="-1449.95" font-family="Times,serif" font-size="14.00">Class: VelocityAnalyzer</text>
</g>
<g id="clust20" class="cluster">
<title>cluster_a6717bd9</title>
<polygon fill="none" stroke="black" stroke-dasharray="1,5" points="327.12,-752.25 327.12,-870.25 465.62,-870.25 465.62,-752.25 327.12,-752.25"/>
<text text-anchor="middle" x="396.38" y="-852.95" font-family="Times,serif" font-size="14.00">File: _main</text>
</g>
<g id="clust21" class="cluster">
<title>cluster_408205f5</title>
<polygon fill="none" stroke="black" stroke-dasharray="1,5" points="335.12,-760.25 335.12,-837.25 457.62,-837.25 457.62,-760.25 335.12,-760.25"/>
<text text-anchor="middle" x="396.38" y="-819.95" font-family="Times,serif" font-size="14.00">Class: Preprocessor</text>
</g>
<g id="clust22" class="cluster">
<title>cluster_d36c98d0</title>
<polygon fill="none" stroke="black" stroke-dasharray="1,5" points="578.62,-752.25 578.62,-870.25 736.62,-870.25 736.62,-752.25 578.62,-752.25"/>
<text text-anchor="middle" x="657.62" y="-852.95" font-family="Times,serif" font-size="14.00">File: _main</text>
</g>
<g id="clust23" class="cluster">
<title>cluster_217b7fad</title>
<polygon fill="none" stroke="black" stroke-dasharray="1,5" points="586.62,-760.25 586.62,-837.25 728.62,-837.25 728.62,-760.25 586.62,-760.25"/>
<text text-anchor="middle" x="657.62" y="-819.95" font-family="Times,serif" font-size="14.00">Class: FeatureEngineer</text>
</g>
<g id="clust24" class="cluster">
<title>cluster_4aa7dfe0</title>
<polygon fill="none" stroke="black" stroke-dasharray="1,5" points="594.88,-248.25 594.88,-420.25 1265,-420.25 1265,-248.25 594.88,-248.25"/>
<text text-anchor="middle" x="929.94" y="-402.95" font-family="Times,serif" font-size="14.00">File: _main</text>
</g>
<g id="clust25" class="cluster">
<title>cluster_8283756c</title>
<polygon fill="none" stroke="black" stroke-dasharray="1,5" points="602.88,-256.25 602.88,-387.25 1257,-387.25 1257,-256.25 602.88,-256.25"/>
<text text-anchor="middle" x="929.94" y="-369.95" font-family="Times,serif" font-size="14.00">Class: JsonDataFlattener</text>
</g>
<g id="clust26" class="cluster">
<title>cluster_b4fb2eaa</title>
<polygon fill="none" stroke="black" stroke-dasharray="1,5" points="867.38,-608.25 867.38,-780.25 1269.5,-780.25 1269.5,-608.25 867.38,-608.25"/>
<text text-anchor="middle" x="1068.44" y="-762.95" font-family="Times,serif" font-size="14.00">File: _mouse_down_up</text>
</g>
<g id="clust27" class="cluster">
<title>cluster_9e781768</title>
<polygon fill="none" stroke="black" stroke-dasharray="1,5" points="875.38,-616.25 875.38,-747.25 1261.5,-747.25 1261.5,-616.25 875.38,-616.25"/>
<text text-anchor="middle" x="1068.44" y="-729.95" font-family="Times,serif" font-size="14.00">Class: MouseDownUpProcessor</text>
</g>
<g id="clust28" class="cluster">
<title>cluster_bc2118d9</title>
<polygon fill="none" stroke="black" stroke-dasharray="1,5" points="867.38,-428.25 867.38,-600.25 1495.88,-600.25 1495.88,-428.25 867.38,-428.25"/>
<text text-anchor="middle" x="1181.62" y="-582.95" font-family="Times,serif" font-size="14.00">File: _mouse_movement</text>
</g>
<g id="clust29" class="cluster">
<title>cluster_a539c5fd</title>
<polygon fill="none" stroke="black" stroke-dasharray="1,5" points="875.38,-436.25 875.38,-567.25 1487.88,-567.25 1487.88,-436.25 875.38,-436.25"/>
<text text-anchor="middle" x="1181.62" y="-549.95" font-family="Times,serif" font-size="14.00">Class: MouseMovementProcessor</text>
</g>
<!-- Legend -->
<g id="node1" class="node">
<title>Legend</title>
<polygon fill="none" stroke="black" points="1,-95 1,-113.5 265,-113.5 265,-95 1,-95"/>
<text text-anchor="start" x="80.88" y="-99.2" font-family="Times,serif" font-size="14.00">Code2flow Legend</text>
<polygon fill="none" stroke="black" points="1,-1 1,-95 265,-95 265,-1 1,-1"/>
<polygon fill="none" stroke="black" points="3,-70.5 3,-93 213,-93 213,-70.5 3,-70.5"/>
<text text-anchor="start" x="62.25" y="-76.7" font-family="Times,serif" font-size="14.00">Regular function</text>
<polygon fill="#cccccc" stroke="none" points="213,-70.5 213,-93 263,-93 263,-70.5 213,-70.5"/>
<polygon fill="none" stroke="black" points="213,-70.5 213,-93 263,-93 263,-70.5 213,-70.5"/>
<polygon fill="none" stroke="black" points="3,-48 3,-70.5 213,-70.5 213,-48 3,-48"/>
<text text-anchor="start" x="14.25" y="-54.2" font-family="Times,serif" font-size="14.00">Trunk function (nothing calls this)</text>
<polygon fill="#966f33" stroke="none" points="213,-48 213,-70.5 263,-70.5 263,-48 213,-48"/>
<polygon fill="none" stroke="black" points="213,-48 213,-70.5 263,-70.5 263,-48 213,-48"/>
<polygon fill="none" stroke="black" points="3,-25.5 3,-48 213,-48 213,-25.5 3,-25.5"/>
<text text-anchor="start" x="6" y="-31.7" font-family="Times,serif" font-size="14.00">Leaf function (this calls nothing else)</text>
<polygon fill="#6db33f" stroke="none" points="213,-25.5 213,-48 263,-48 263,-25.5 213,-25.5"/>
<polygon fill="none" stroke="black" points="213,-25.5 213,-48 263,-48 263,-25.5 213,-25.5"/>
<polygon fill="none" stroke="black" points="3,-3 3,-25.5 213,-25.5 213,-3 3,-3"/>
<text text-anchor="start" x="72.38" y="-9.2" font-family="Times,serif" font-size="14.00">Function call</text>
<polygon fill="none" stroke="black" points="213,-3 213,-25.5 263,-25.5 263,-3 213,-3"/>
<text text-anchor="start" x="230.88" y="-9.2" font-family="Times,serif" font-size="14.00">→</text>
<polygon fill="none" stroke="black" points="2,-2 2,-94 264,-94 264,-2 2,-2"/>
<polygon fill="none" stroke="black" points="0,0 0,-114.5 266,-114.5 266,0 0,0"/>
</g>
<!-- node_9380a361 -->
<g id="node2" class="node">
<title>node_9380a361</title>
<path fill="#6db33f" stroke="black" d="M776.5,-174.25C776.5,-174.25 537.75,-174.25 537.75,-174.25 531.75,-174.25 525.75,-168.25 525.75,-162.25 525.75,-162.25 525.75,-150.25 525.75,-150.25 525.75,-144.25 531.75,-138.25 537.75,-138.25 537.75,-138.25 776.5,-138.25 776.5,-138.25 782.5,-138.25 788.5,-144.25 788.5,-150.25 788.5,-150.25 788.5,-162.25 788.5,-162.25 788.5,-168.25 782.5,-174.25 776.5,-174.25"/>
<text text-anchor="middle" x="657.12" y="-151.2" font-family="Times,serif" font-size="14.00">133: _check_mouse_movements_heuristics()</text>
</g>
<!-- node_b8488f6f -->
<g id="node3" class="node">
<title>node_b8488f6f</title>
<path fill="#cccccc" stroke="black" d="M477.75,-174.25C477.75,-174.25 314,-174.25 314,-174.25 308,-174.25 302,-168.25 302,-162.25 302,-162.25 302,-150.25 302,-150.25 302,-144.25 308,-138.25 314,-138.25 314,-138.25 477.75,-138.25 477.75,-138.25 483.75,-138.25 489.75,-144.25 489.75,-150.25 489.75,-150.25 489.75,-162.25 489.75,-162.25 489.75,-168.25 483.75,-174.25 477.75,-174.25"/>
<text text-anchor="middle" x="395.88" y="-151.2" font-family="Times,serif" font-size="14.00">45: _run_all_heuristic_checks()</text>
</g>
<!-- node_b8488f6f&#45;&gt;node_9380a361 -->
<g id="edge1" class="edge">
<title>node_b8488f6f&#45;&gt;node_9380a361</title>
<path fill="none" stroke="#cc79a7" stroke-width="2" d="M490.19,-156.25C490.19,-156.25 512.64,-156.25 512.64,-156.25"/>
<polygon fill="#cc79a7" stroke="#cc79a7" stroke-width="2" points="512.64,-159.75 522.64,-156.25 512.64,-152.75 512.64,-159.75"/>
</g>
<!-- node_70426831 -->
<g id="node4" class="node">
<title>node_70426831</title>
<path fill="#966f33" stroke="black" d="M153,-174.25C153,-174.25 113,-174.25 113,-174.25 107,-174.25 101,-168.25 101,-162.25 101,-162.25 101,-150.25 101,-150.25 101,-144.25 107,-138.25 113,-138.25 113,-138.25 153,-138.25 153,-138.25 159,-138.25 165,-144.25 165,-150.25 165,-150.25 165,-162.25 165,-162.25 165,-168.25 159,-174.25 153,-174.25"/>
<text text-anchor="middle" x="133" y="-151.2" font-family="Times,serif" font-size="14.00">25: run()</text>
</g>
<!-- node_70426831&#45;&gt;node_b8488f6f -->
<g id="edge2" class="edge">
<title>node_70426831&#45;&gt;node_b8488f6f</title>
<path fill="none" stroke="#e69f00" stroke-width="2" d="M165.5,-156.25C165.5,-156.25 288.57,-156.25 288.57,-156.25"/>
<polygon fill="#e69f00" stroke="#e69f00" stroke-width="2" points="288.57,-159.75 298.57,-156.25 288.57,-152.75 288.57,-159.75"/>
</g>
<!-- node_425df28b -->
<g id="node5" class="node">
<title>node_425df28b</title>
<path fill="#966f33" stroke="black" d="M967.25,-1020.25C967.25,-1020.25 892,-1020.25 892,-1020.25 886,-1020.25 880,-1014.25 880,-1008.25 880,-1008.25 880,-996.25 880,-996.25 880,-990.25 886,-984.25 892,-984.25 892,-984.25 967.25,-984.25 967.25,-984.25 973.25,-984.25 979.25,-990.25 979.25,-996.25 979.25,-996.25 979.25,-1008.25 979.25,-1008.25 979.25,-1014.25 973.25,-1020.25 967.25,-1020.25"/>
<text text-anchor="middle" x="929.62" y="-997.2" font-family="Times,serif" font-size="14.00">124: __call__()</text>
</g>
<!-- node_ff8dfe8a -->
<g id="node8" class="node">
<title>node_ff8dfe8a</title>
<path fill="#cccccc" stroke="black" d="M1267.75,-1020.25C1267.75,-1020.25 1083.75,-1020.25 1083.75,-1020.25 1077.75,-1020.25 1071.75,-1014.25 1071.75,-1008.25 1071.75,-1008.25 1071.75,-996.25 1071.75,-996.25 1071.75,-990.25 1077.75,-984.25 1083.75,-984.25 1083.75,-984.25 1267.75,-984.25 1267.75,-984.25 1273.75,-984.25 1279.75,-990.25 1279.75,-996.25 1279.75,-996.25 1279.75,-1008.25 1279.75,-1008.25 1279.75,-1014.25 1273.75,-1020.25 1267.75,-1020.25"/>
<text text-anchor="middle" x="1175.75" y="-997.2" font-family="Times,serif" font-size="14.00">46: _process_checkbox_sequence()</text>
</g>
<!-- node_425df28b&#45;&gt;node_ff8dfe8a -->
<g id="edge3" class="edge">
<title>node_425df28b&#45;&gt;node_ff8dfe8a</title>
<path fill="none" stroke="#009e73" stroke-width="2" d="M979.73,-1002.25C979.73,-1002.25 1058.32,-1002.25 1058.32,-1002.25"/>
<polygon fill="#009e73" stroke="#009e73" stroke-width="2" points="1058.32,-1005.75 1068.32,-1002.25 1058.32,-998.75 1058.32,-1005.75"/>
</g>
<!-- node_d0ad7afb -->
<g id="node6" class="node">
<title>node_d0ad7afb</title>
<path fill="#6db33f" stroke="black" d="M963.12,-1074.25C963.12,-1074.25 896.12,-1074.25 896.12,-1074.25 890.12,-1074.25 884.12,-1068.25 884.12,-1062.25 884.12,-1062.25 884.12,-1050.25 884.12,-1050.25 884.12,-1044.25 890.12,-1038.25 896.12,-1038.25 896.12,-1038.25 963.12,-1038.25 963.12,-1038.25 969.12,-1038.25 975.12,-1044.25 975.12,-1050.25 975.12,-1050.25 975.12,-1062.25 975.12,-1062.25 975.12,-1068.25 969.12,-1074.25 963.12,-1074.25"/>
<text text-anchor="middle" x="929.62" y="-1051.2" font-family="Times,serif" font-size="14.00">17: __init__()</text>
</g>
<!-- node_0959b214 -->
<g id="node7" class="node">
<title>node_0959b214</title>
<path fill="#6db33f" stroke="black" d="M1486.25,-1020.25C1486.25,-1020.25 1327.75,-1020.25 1327.75,-1020.25 1321.75,-1020.25 1315.75,-1014.25 1315.75,-1008.25 1315.75,-1008.25 1315.75,-996.25 1315.75,-996.25 1315.75,-990.25 1321.75,-984.25 1327.75,-984.25 1327.75,-984.25 1486.25,-984.25 1486.25,-984.25 1492.25,-984.25 1498.25,-990.25 1498.25,-996.25 1498.25,-996.25 1498.25,-1008.25 1498.25,-1008.25 1498.25,-1014.25 1492.25,-1020.25 1486.25,-1020.25"/>
<text text-anchor="middle" x="1407" y="-997.2" font-family="Times,serif" font-size="14.00">21: _calculate_path_linearity()</text>
</g>
<!-- node_ff8dfe8a&#45;&gt;node_0959b214 -->
<g id="edge4" class="edge">
<title>node_ff8dfe8a&#45;&gt;node_0959b214</title>
<path fill="none" stroke="#56b4e9" stroke-width="2" d="M1280.21,-1002.25C1280.21,-1002.25 1302.35,-1002.25 1302.35,-1002.25"/>
<polygon fill="#56b4e9" stroke="#56b4e9" stroke-width="2" points="1302.35,-1005.75 1312.35,-1002.25 1302.35,-998.75 1302.35,-1005.75"/>
</g>
<!-- node_f3dcdf48 -->
<g id="node9" class="node">
<title>node_f3dcdf48</title>
<path fill="#966f33" stroke="black" d="M963.88,-840.25C963.88,-840.25 895.38,-840.25 895.38,-840.25 889.38,-840.25 883.38,-834.25 883.38,-828.25 883.38,-828.25 883.38,-816.25 883.38,-816.25 883.38,-810.25 889.38,-804.25 895.38,-804.25 895.38,-804.25 963.88,-804.25 963.88,-804.25 969.88,-804.25 975.88,-810.25 975.88,-816.25 975.88,-816.25 975.88,-828.25 975.88,-828.25 975.88,-834.25 969.88,-840.25 963.88,-840.25"/>
<text text-anchor="middle" x="929.62" y="-817.2" font-family="Times,serif" font-size="14.00">38: __call__()</text>
</g>
<!-- node_84de163c -->
<g id="node11" class="node">
<title>node_84de163c</title>
<path fill="#6db33f" stroke="black" d="M1234.75,-840.25C1234.75,-840.25 1116.75,-840.25 1116.75,-840.25 1110.75,-840.25 1104.75,-834.25 1104.75,-828.25 1104.75,-828.25 1104.75,-816.25 1104.75,-816.25 1104.75,-810.25 1110.75,-804.25 1116.75,-804.25 1116.75,-804.25 1234.75,-804.25 1234.75,-804.25 1240.75,-804.25 1246.75,-810.25 1246.75,-816.25 1246.75,-816.25 1246.75,-828.25 1246.75,-828.25 1246.75,-834.25 1240.75,-840.25 1234.75,-840.25"/>
<text text-anchor="middle" x="1175.75" y="-817.2" font-family="Times,serif" font-size="14.00">25: _get_event_count()</text>
</g>
<!-- node_f3dcdf48&#45;&gt;node_84de163c -->
<g id="edge5" class="edge">
<title>node_f3dcdf48&#45;&gt;node_84de163c</title>
<path fill="none" stroke="#000000" stroke-width="2" d="M976.21,-822.25C976.21,-822.25 1091.62,-822.25 1091.62,-822.25"/>
<polygon fill="#000000" stroke="#000000" stroke-width="2" points="1091.62,-825.75 1101.62,-822.25 1091.62,-818.75 1091.62,-825.75"/>
</g>
<!-- node_57b5d6f4 -->
<g id="node10" class="node">
<title>node_57b5d6f4</title>
<path fill="#6db33f" stroke="black" d="M963.12,-894.25C963.12,-894.25 896.12,-894.25 896.12,-894.25 890.12,-894.25 884.12,-888.25 884.12,-882.25 884.12,-882.25 884.12,-870.25 884.12,-870.25 884.12,-864.25 890.12,-858.25 896.12,-858.25 896.12,-858.25 963.12,-858.25 963.12,-858.25 969.12,-858.25 975.12,-864.25 975.12,-870.25 975.12,-870.25 975.12,-882.25 975.12,-882.25 975.12,-888.25 969.12,-894.25 963.12,-894.25"/>
<text text-anchor="middle" x="929.62" y="-871.2" font-family="Times,serif" font-size="14.00">17: __init__()</text>
</g>
<!-- node_40d6ef76 -->
<g id="node12" class="node">
<title>node_40d6ef76</title>
<path fill="#966f33" stroke="black" d="M963.88,-1254.25C963.88,-1254.25 895.38,-1254.25 895.38,-1254.25 889.38,-1254.25 883.38,-1248.25 883.38,-1242.25 883.38,-1242.25 883.38,-1230.25 883.38,-1230.25 883.38,-1224.25 889.38,-1218.25 895.38,-1218.25 895.38,-1218.25 963.88,-1218.25 963.88,-1218.25 969.88,-1218.25 975.88,-1224.25 975.88,-1230.25 975.88,-1230.25 975.88,-1242.25 975.88,-1242.25 975.88,-1248.25 969.88,-1254.25 963.88,-1254.25"/>
<text text-anchor="middle" x="929.62" y="-1231.2" font-family="Times,serif" font-size="14.00">71: __call__()</text>
</g>
<!-- node_0c8fe028 -->
<g id="node14" class="node">
<title>node_0c8fe028</title>
<path fill="#6db33f" stroke="black" d="M1248.62,-1200.25C1248.62,-1200.25 1102.88,-1200.25 1102.88,-1200.25 1096.88,-1200.25 1090.88,-1194.25 1090.88,-1188.25 1090.88,-1188.25 1090.88,-1176.25 1090.88,-1176.25 1090.88,-1170.25 1096.88,-1164.25 1102.88,-1164.25 1102.88,-1164.25 1248.62,-1164.25 1248.62,-1164.25 1254.62,-1164.25 1260.62,-1170.25 1260.62,-1176.25 1260.62,-1176.25 1260.62,-1188.25 1260.62,-1188.25 1260.62,-1194.25 1254.62,-1200.25 1248.62,-1200.25"/>
<text text-anchor="middle" x="1175.75" y="-1177.2" font-family="Times,serif" font-size="14.00">18: _analyze_click_timing()</text>
</g>
<!-- node_40d6ef76&#45;&gt;node_0c8fe028 -->
<g id="edge8" class="edge">
<title>node_40d6ef76&#45;&gt;node_0c8fe028</title>
<path fill="none" stroke="#d55e00" stroke-width="2" d="M929.62,-1217.97C929.62,-1202.3 929.62,-1182.25 929.62,-1182.25 929.62,-1182.25 1077.68,-1182.25 1077.68,-1182.25"/>
<polygon fill="#d55e00" stroke="#d55e00" stroke-width="2" points="1077.68,-1185.75 1087.68,-1182.25 1077.68,-1178.75 1077.68,-1185.75"/>
</g>
<!-- node_53e8240a -->
<g id="node15" class="node">
<title>node_53e8240a</title>
<path fill="#6db33f" stroke="black" d="M1252,-1254.25C1252,-1254.25 1099.5,-1254.25 1099.5,-1254.25 1093.5,-1254.25 1087.5,-1248.25 1087.5,-1242.25 1087.5,-1242.25 1087.5,-1230.25 1087.5,-1230.25 1087.5,-1224.25 1093.5,-1218.25 1099.5,-1218.25 1099.5,-1218.25 1252,-1218.25 1252,-1218.25 1258,-1218.25 1264,-1224.25 1264,-1230.25 1264,-1230.25 1264,-1242.25 1264,-1242.25 1264,-1248.25 1258,-1254.25 1252,-1254.25"/>
<text text-anchor="middle" x="1175.75" y="-1231.2" font-family="Times,serif" font-size="14.00">54: _analyze_distance_ratio()</text>
</g>
<!-- node_40d6ef76&#45;&gt;node_53e8240a -->
<g id="edge9" class="edge">
<title>node_40d6ef76&#45;&gt;node_53e8240a</title>
<path fill="none" stroke="#d55e00" stroke-width="2" d="M976.21,-1230.25C976.21,-1230.25 1073.97,-1230.25 1073.97,-1230.25"/>
<polygon fill="#d55e00" stroke="#d55e00" stroke-width="2" points="1073.97,-1233.75 1083.97,-1230.25 1073.97,-1226.75 1073.97,-1233.75"/>
</g>
<!-- node_d905df90 -->
<g id="node16" class="node">
<title>node_d905df90</title>
<path fill="#6db33f" stroke="black" d="M1251.62,-1308.25C1251.62,-1308.25 1099.88,-1308.25 1099.88,-1308.25 1093.88,-1308.25 1087.88,-1302.25 1087.88,-1296.25 1087.88,-1296.25 1087.88,-1284.25 1087.88,-1284.25 1087.88,-1278.25 1093.88,-1272.25 1099.88,-1272.25 1099.88,-1272.25 1251.62,-1272.25 1251.62,-1272.25 1257.62,-1272.25 1263.62,-1278.25 1263.62,-1284.25 1263.62,-1284.25 1263.62,-1296.25 1263.62,-1296.25 1263.62,-1302.25 1257.62,-1308.25 1251.62,-1308.25"/>
<text text-anchor="middle" x="1175.75" y="-1285.2" font-family="Times,serif" font-size="14.00">32: _analyze_path_linearity()</text>
</g>
<!-- node_40d6ef76&#45;&gt;node_d905df90 -->
<g id="edge10" class="edge">
<title>node_40d6ef76&#45;&gt;node_d905df90</title>
<path fill="none" stroke="#d55e00" stroke-width="2" d="M976.1,-1242.25C999.34,-1242.25 1022.58,-1242.25 1022.58,-1242.25 1022.58,-1242.25 1022.58,-1290.25 1022.58,-1290.25 1022.58,-1290.25 1074.51,-1290.25 1074.51,-1290.25"/>
<polygon fill="#d55e00" stroke="#d55e00" stroke-width="2" points="1074.51,-1293.75 1084.51,-1290.25 1074.51,-1286.75 1074.51,-1293.75"/>
</g>
<!-- node_72a3d63c -->
<g id="node13" class="node">
<title>node_72a3d63c</title>
<path fill="#6db33f" stroke="black" d="M963.12,-1308.25C963.12,-1308.25 896.12,-1308.25 896.12,-1308.25 890.12,-1308.25 884.12,-1302.25 884.12,-1296.25 884.12,-1296.25 884.12,-1284.25 884.12,-1284.25 884.12,-1278.25 890.12,-1272.25 896.12,-1272.25 896.12,-1272.25 963.12,-1272.25 963.12,-1272.25 969.12,-1272.25 975.12,-1278.25 975.12,-1284.25 975.12,-1284.25 975.12,-1296.25 975.12,-1296.25 975.12,-1302.25 969.12,-1308.25 963.12,-1308.25"/>
<text text-anchor="middle" x="929.62" y="-1285.2" font-family="Times,serif" font-size="14.00">14: __init__()</text>
</g>
<!-- node_da998138 -->
<g id="node17" class="node">
<title>node_da998138</title>
<path fill="#cccccc" stroke="black" d="M690.62,-804.25C690.62,-804.25 623.62,-804.25 623.62,-804.25 617.62,-804.25 611.62,-798.25 611.62,-792.25 611.62,-792.25 611.62,-780.25 611.62,-780.25 611.62,-774.25 617.62,-768.25 623.62,-768.25 623.62,-768.25 690.62,-768.25 690.62,-768.25 696.62,-768.25 702.62,-774.25 702.62,-780.25 702.62,-780.25 702.62,-792.25 702.62,-792.25 702.62,-798.25 696.62,-804.25 690.62,-804.25"/>
<text text-anchor="middle" x="657.12" y="-781.2" font-family="Times,serif" font-size="14.00">18: __init__()</text>
</g>
<!-- node_da998138&#45;&gt;node_d0ad7afb -->
<g id="edge11" class="edge">
<title>node_da998138&#45;&gt;node_d0ad7afb</title>
<path fill="none" stroke="#000000" stroke-width="2" d="M634.38,-804.38C634.38,-864.92 634.38,-1056.25 634.38,-1056.25 634.38,-1056.25 870.79,-1056.25 870.79,-1056.25"/>
<polygon fill="#000000" stroke="#000000" stroke-width="2" points="870.79,-1059.75 880.79,-1056.25 870.79,-1052.75 870.79,-1059.75"/>
</g>
<!-- node_da998138&#45;&gt;node_57b5d6f4 -->
<g id="edge12" class="edge">
<title>node_da998138&#45;&gt;node_57b5d6f4</title>
<path fill="none" stroke="#000000" stroke-width="2" d="M657.12,-804.46C657.12,-830.76 657.12,-876.25 657.12,-876.25 657.12,-876.25 870.68,-876.25 870.68,-876.25"/>
<polygon fill="#000000" stroke="#000000" stroke-width="2" points="870.68,-879.75 880.68,-876.25 870.68,-872.75 870.68,-879.75"/>
</g>
<!-- node_ce38bb9e -->
<g id="node31" class="node">
<title>node_ce38bb9e</title>
<path fill="#6db33f" stroke="black" d="M963.12,-714.25C963.12,-714.25 896.12,-714.25 896.12,-714.25 890.12,-714.25 884.12,-708.25 884.12,-702.25 884.12,-702.25 884.12,-690.25 884.12,-690.25 884.12,-684.25 890.12,-678.25 896.12,-678.25 896.12,-678.25 963.12,-678.25 963.12,-678.25 969.12,-678.25 975.12,-684.25 975.12,-690.25 975.12,-690.25 975.12,-702.25 975.12,-702.25 975.12,-708.25 969.12,-714.25 963.12,-714.25"/>
<text text-anchor="middle" x="929.62" y="-691.2" font-family="Times,serif" font-size="14.00">15: __init__()</text>
</g>
<!-- node_da998138&#45;&gt;node_ce38bb9e -->
<g id="edge13" class="edge">
<title>node_da998138&#45;&gt;node_ce38bb9e</title>
<path fill="none" stroke="#000000" stroke-width="2" d="M672.29,-768.04C672.29,-741.74 672.29,-696.25 672.29,-696.25 672.29,-696.25 870.89,-696.25 870.89,-696.25"/>
<polygon fill="#000000" stroke="#000000" stroke-width="2" points="870.89,-699.75 880.89,-696.25 870.89,-692.75 870.89,-699.75"/>
</g>
<!-- node_ae48a79e -->
<g id="node34" class="node">
<title>node_ae48a79e</title>
<path fill="#6db33f" stroke="black" d="M963.12,-534.25C963.12,-534.25 896.12,-534.25 896.12,-534.25 890.12,-534.25 884.12,-528.25 884.12,-522.25 884.12,-522.25 884.12,-510.25 884.12,-510.25 884.12,-504.25 890.12,-498.25 896.12,-498.25 896.12,-498.25 963.12,-498.25 963.12,-498.25 969.12,-498.25 975.12,-504.25 975.12,-510.25 975.12,-510.25 975.12,-522.25 975.12,-522.25 975.12,-528.25 969.12,-534.25 963.12,-534.25"/>
<text text-anchor="middle" x="929.62" y="-511.2" font-family="Times,serif" font-size="14.00">18: __init__()</text>
</g>
<!-- node_da998138&#45;&gt;node_ae48a79e -->
<g id="edge14" class="edge">
<title>node_da998138&#45;&gt;node_ae48a79e</title>
<path fill="none" stroke="#000000" stroke-width="2" d="M641.96,-768.12C641.96,-707.58 641.96,-516.25 641.96,-516.25 641.96,-516.25 870.7,-516.25 870.7,-516.25"/>
<polygon fill="#000000" stroke="#000000" stroke-width="2" points="870.7,-519.75 880.7,-516.25 870.7,-512.75 870.7,-519.75"/>
</g>
<!-- node_6e3c40c4 -->
<g id="node18" class="node">
<title>node_6e3c40c4</title>
<path fill="#966f33" stroke="black" d="M430.12,-1524.25C430.12,-1524.25 361.62,-1524.25 361.62,-1524.25 355.62,-1524.25 349.62,-1518.25 349.62,-1512.25 349.62,-1512.25 349.62,-1500.25 349.62,-1500.25 349.62,-1494.25 355.62,-1488.25 361.62,-1488.25 361.62,-1488.25 430.12,-1488.25 430.12,-1488.25 436.12,-1488.25 442.12,-1494.25 442.12,-1500.25 442.12,-1500.25 442.12,-1512.25 442.12,-1512.25 442.12,-1518.25 436.12,-1524.25 430.12,-1524.25"/>
<text text-anchor="middle" x="395.88" y="-1501.2" font-family="Times,serif" font-size="14.00">48: __call__()</text>
</g>
<!-- node_f959aebc -->
<g id="node20" class="node">
<title>node_f959aebc</title>
<path fill="#6db33f" stroke="black" d="M728.88,-1524.25C728.88,-1524.25 585.38,-1524.25 585.38,-1524.25 579.38,-1524.25 573.38,-1518.25 573.38,-1512.25 573.38,-1512.25 573.38,-1500.25 573.38,-1500.25 573.38,-1494.25 579.38,-1488.25 585.38,-1488.25 585.38,-1488.25 728.88,-1488.25 728.88,-1488.25 734.88,-1488.25 740.88,-1494.25 740.88,-1500.25 740.88,-1500.25 740.88,-1512.25 740.88,-1512.25 740.88,-1518.25 734.88,-1524.25 728.88,-1524.25"/>
<text text-anchor="middle" x="657.12" y="-1501.2" font-family="Times,serif" font-size="14.00">24: _calculate_final_score()</text>
</g>
<!-- node_6e3c40c4&#45;&gt;node_f959aebc -->
<g id="edge15" class="edge">
<title>node_6e3c40c4&#45;&gt;node_f959aebc</title>
<path fill="none" stroke="#f0e442" stroke-width="2" d="M442.58,-1506.25C442.58,-1506.25 560.04,-1506.25 560.04,-1506.25"/>
<polygon fill="#f0e442" stroke="#f0e442" stroke-width="2" points="560.04,-1509.75 570.04,-1506.25 560.04,-1502.75 560.04,-1509.75"/>
</g>
<!-- node_53008ef2 -->
<g id="node19" class="node">
<title>node_53008ef2</title>
<path fill="#cccccc" stroke="black" d="M429.38,-1470.25C429.38,-1470.25 362.38,-1470.25 362.38,-1470.25 356.38,-1470.25 350.38,-1464.25 350.38,-1458.25 350.38,-1458.25 350.38,-1446.25 350.38,-1446.25 350.38,-1440.25 356.38,-1434.25 362.38,-1434.25 362.38,-1434.25 429.38,-1434.25 429.38,-1434.25 435.38,-1434.25 441.38,-1440.25 441.38,-1446.25 441.38,-1446.25 441.38,-1458.25 441.38,-1458.25 441.38,-1464.25 435.38,-1470.25 429.38,-1470.25"/>
<text text-anchor="middle" x="395.88" y="-1447.2" font-family="Times,serif" font-size="14.00">15: __init__()</text>
</g>
<!-- node_735c6b51 -->
<g id="node26" class="node">
<title>node_735c6b51</title>
<path fill="#cccccc" stroke="black" d="M690.62,-1344.25C690.62,-1344.25 623.62,-1344.25 623.62,-1344.25 617.62,-1344.25 611.62,-1338.25 611.62,-1332.25 611.62,-1332.25 611.62,-1320.25 611.62,-1320.25 611.62,-1314.25 617.62,-1308.25 623.62,-1308.25 623.62,-1308.25 690.62,-1308.25 690.62,-1308.25 696.62,-1308.25 702.62,-1314.25 702.62,-1320.25 702.62,-1320.25 702.62,-1332.25 702.62,-1332.25 702.62,-1338.25 696.62,-1344.25 690.62,-1344.25"/>
<text text-anchor="middle" x="657.12" y="-1321.2" font-family="Times,serif" font-size="14.00">17: __init__()</text>
</g>
<!-- node_53008ef2&#45;&gt;node_735c6b51 -->
<g id="edge16" class="edge">
<title>node_53008ef2&#45;&gt;node_735c6b51</title>
<path fill="none" stroke="#56b4e9" stroke-width="2" d="M395.88,-1433.93C395.88,-1398.98 395.88,-1326.25 395.88,-1326.25 395.88,-1326.25 598.29,-1326.25 598.29,-1326.25"/>
<polygon fill="#56b4e9" stroke="#56b4e9" stroke-width="2" points="598.29,-1329.75 608.29,-1326.25 598.29,-1322.75 598.29,-1329.75"/>
</g>
<!-- node_f59f4e6b -->
<g id="node21" class="node">
<title>node_f59f4e6b</title>
<path fill="#966f33" stroke="black" d="M691.38,-300.25C691.38,-300.25 622.88,-300.25 622.88,-300.25 616.88,-300.25 610.88,-294.25 610.88,-288.25 610.88,-288.25 610.88,-276.25 610.88,-276.25 610.88,-270.25 616.88,-264.25 622.88,-264.25 622.88,-264.25 691.38,-264.25 691.38,-264.25 697.38,-264.25 703.38,-270.25 703.38,-276.25 703.38,-276.25 703.38,-288.25 703.38,-288.25 703.38,-294.25 697.38,-300.25 691.38,-300.25"/>
<text text-anchor="middle" x="657.12" y="-277.2" font-family="Times,serif" font-size="14.00">55: __call__()</text>
</g>
<!-- node_6aabac00 -->
<g id="node23" class="node">
<title>node_6aabac00</title>
<path fill="#cccccc" stroke="black" d="M986,-300.25C986,-300.25 873.25,-300.25 873.25,-300.25 867.25,-300.25 861.25,-294.25 861.25,-288.25 861.25,-288.25 861.25,-276.25 861.25,-276.25 861.25,-270.25 867.25,-264.25 873.25,-264.25 873.25,-264.25 986,-264.25 986,-264.25 992,-264.25 998,-270.25 998,-276.25 998,-276.25 998,-288.25 998,-288.25 998,-294.25 992,-300.25 986,-300.25"/>
<text text-anchor="middle" x="929.62" y="-277.2" font-family="Times,serif" font-size="14.00">38: _extract_metrics()</text>
</g>
<!-- node_f59f4e6b&#45;&gt;node_6aabac00 -->
<g id="edge17" class="edge">
<title>node_f59f4e6b&#45;&gt;node_6aabac00</title>
<path fill="none" stroke="#009e73" stroke-width="2" d="M703.66,-282.25C703.66,-282.25 847.76,-282.25 847.76,-282.25"/>
<polygon fill="#009e73" stroke="#009e73" stroke-width="2" points="847.76,-285.75 857.76,-282.25 847.76,-278.75 847.76,-285.75"/>
</g>
<!-- node_9558c125 -->
<g id="node22" class="node">
<title>node_9558c125</title>
<path fill="#6db33f" stroke="black" d="M690.62,-354.25C690.62,-354.25 623.62,-354.25 623.62,-354.25 617.62,-354.25 611.62,-348.25 611.62,-342.25 611.62,-342.25 611.62,-330.25 611.62,-330.25 611.62,-324.25 617.62,-318.25 623.62,-318.25 623.62,-318.25 690.62,-318.25 690.62,-318.25 696.62,-318.25 702.62,-324.25 702.62,-330.25 702.62,-330.25 702.62,-342.25 702.62,-342.25 702.62,-348.25 696.62,-354.25 690.62,-354.25"/>
<text text-anchor="middle" x="657.12" y="-331.2" font-family="Times,serif" font-size="14.00">19: __init__()</text>
</g>
<!-- node_6fb0b779 -->
<g id="node24" class="node">
<title>node_6fb0b779</title>
<path fill="#6db33f" stroke="black" d="M1237,-300.25C1237,-300.25 1114.5,-300.25 1114.5,-300.25 1108.5,-300.25 1102.5,-294.25 1102.5,-288.25 1102.5,-288.25 1102.5,-276.25 1102.5,-276.25 1102.5,-270.25 1108.5,-264.25 1114.5,-264.25 1114.5,-264.25 1237,-264.25 1237,-264.25 1243,-264.25 1249,-270.25 1249,-276.25 1249,-276.25 1249,-288.25 1249,-288.25 1249,-294.25 1243,-300.25 1237,-300.25"/>
<text text-anchor="middle" x="1175.75" y="-277.2" font-family="Times,serif" font-size="14.00">24: _get_nested_value()</text>
</g>
<!-- node_6aabac00&#45;&gt;node_6fb0b779 -->
<g id="edge18" class="edge">
<title>node_6aabac00&#45;&gt;node_6fb0b779</title>
<path fill="none" stroke="#000000" stroke-width="2" d="M998.18,-282.25C998.18,-282.25 1089.37,-282.25 1089.37,-282.25"/>
<polygon fill="#000000" stroke="#000000" stroke-width="2" points="1089.37,-285.75 1099.37,-282.25 1089.37,-278.75 1089.37,-285.75"/>
</g>
<!-- node_13286df6 -->
<g id="node25" class="node">
<title>node_13286df6</title>
<path fill="#966f33" stroke="black" d="M166.5,-1137.25C166.5,-1137.25 99.5,-1137.25 99.5,-1137.25 93.5,-1137.25 87.5,-1131.25 87.5,-1125.25 87.5,-1125.25 87.5,-1113.25 87.5,-1113.25 87.5,-1107.25 93.5,-1101.25 99.5,-1101.25 99.5,-1101.25 166.5,-1101.25 166.5,-1101.25 172.5,-1101.25 178.5,-1107.25 178.5,-1113.25 178.5,-1113.25 178.5,-1125.25 178.5,-1125.25 178.5,-1131.25 172.5,-1137.25 166.5,-1137.25"/>
<text text-anchor="middle" x="133" y="-1114.2" font-family="Times,serif" font-size="14.00">32: __init__()</text>
</g>
<!-- node_13286df6&#45;&gt;node_53008ef2 -->
<g id="edge19" class="edge">
<title>node_13286df6&#45;&gt;node_53008ef2</title>
<path fill="none" stroke="#d55e00" stroke-width="2" d="M133,-1137.63C133,-1207.44 133,-1452.25 133,-1452.25 133,-1452.25 337.06,-1452.25 337.06,-1452.25"/>
<polygon fill="#d55e00" stroke="#d55e00" stroke-width="2" points="337.06,-1455.75 347.06,-1452.25 337.06,-1448.75 337.06,-1455.75"/>
</g>
<!-- node_badcf781 -->
<g id="node28" class="node">
<title>node_badcf781</title>
<path fill="#cccccc" stroke="black" d="M429.38,-804.25C429.38,-804.25 362.38,-804.25 362.38,-804.25 356.38,-804.25 350.38,-798.25 350.38,-792.25 350.38,-792.25 350.38,-780.25 350.38,-780.25 350.38,-774.25 356.38,-768.25 362.38,-768.25 362.38,-768.25 429.38,-768.25 429.38,-768.25 435.38,-768.25 441.38,-774.25 441.38,-780.25 441.38,-780.25 441.38,-792.25 441.38,-792.25 441.38,-798.25 435.38,-804.25 429.38,-804.25"/>
<text text-anchor="middle" x="395.88" y="-781.2" font-family="Times,serif" font-size="14.00">16: __init__()</text>
</g>
<!-- node_13286df6&#45;&gt;node_badcf781 -->
<g id="edge20" class="edge">
<title>node_13286df6&#45;&gt;node_badcf781</title>
<path fill="none" stroke="#d55e00" stroke-width="2" d="M171.75,-1100.87C171.75,-1031.06 171.75,-786.25 171.75,-786.25 171.75,-786.25 336.95,-786.25 336.95,-786.25"/>
<polygon fill="#d55e00" stroke="#d55e00" stroke-width="2" points="336.95,-789.75 346.95,-786.25 336.95,-782.75 336.95,-789.75"/>
</g>
<!-- node_735c6b51&#45;&gt;node_72a3d63c -->
<g id="edge21" class="edge">
<title>node_735c6b51&#45;&gt;node_72a3d63c</title>
<path fill="none" stroke="#e69f00" stroke-width="2" d="M679.88,-1307.83C679.88,-1298.97 679.88,-1290.25 679.88,-1290.25 679.88,-1290.25 870.79,-1290.25 870.79,-1290.25"/>
<polygon fill="#e69f00" stroke="#e69f00" stroke-width="2" points="870.79,-1293.75 880.79,-1290.25 870.79,-1286.75 870.79,-1293.75"/>
</g>
<!-- node_530933fc -->
<g id="node27" class="node">
<title>node_530933fc</title>
<path fill="#6db33f" stroke="black" d="M963.12,-1560.25C963.12,-1560.25 896.12,-1560.25 896.12,-1560.25 890.12,-1560.25 884.12,-1554.25 884.12,-1548.25 884.12,-1548.25 884.12,-1536.25 884.12,-1536.25 884.12,-1530.25 890.12,-1524.25 896.12,-1524.25 896.12,-1524.25 963.12,-1524.25 963.12,-1524.25 969.12,-1524.25 975.12,-1530.25 975.12,-1536.25 975.12,-1536.25 975.12,-1548.25 975.12,-1548.25 975.12,-1554.25 969.12,-1560.25 963.12,-1560.25"/>
<text text-anchor="middle" x="929.62" y="-1537.2" font-family="Times,serif" font-size="14.00">14: __init__()</text>
</g>
<!-- node_735c6b51&#45;&gt;node_530933fc -->
<g id="edge22" class="edge">
<title>node_735c6b51&#45;&gt;node_530933fc</title>
<path fill="none" stroke="#e69f00" stroke-width="2" d="M703.05,-1326.25C732.29,-1326.25 764.69,-1326.25 764.69,-1326.25 764.69,-1326.25 764.69,-1542.25 764.69,-1542.25 764.69,-1542.25 870.65,-1542.25 870.65,-1542.25"/>
<polygon fill="#e69f00" stroke="#e69f00" stroke-width="2" points="870.65,-1545.75 880.65,-1542.25 870.65,-1538.75 870.65,-1545.75"/>
</g>
<!-- node_589b8534 -->
<g id="node29" class="node">
<title>node_589b8534</title>
<path fill="#6db33f" stroke="black" d="M963.12,-1434.25C963.12,-1434.25 896.12,-1434.25 896.12,-1434.25 890.12,-1434.25 884.12,-1428.25 884.12,-1422.25 884.12,-1422.25 884.12,-1410.25 884.12,-1410.25 884.12,-1404.25 890.12,-1398.25 896.12,-1398.25 896.12,-1398.25 963.12,-1398.25 963.12,-1398.25 969.12,-1398.25 975.12,-1404.25 975.12,-1410.25 975.12,-1410.25 975.12,-1422.25 975.12,-1422.25 975.12,-1428.25 969.12,-1434.25 963.12,-1434.25"/>
<text text-anchor="middle" x="929.62" y="-1411.2" font-family="Times,serif" font-size="14.00">14: __init__()</text>
</g>
<!-- node_735c6b51&#45;&gt;node_589b8534 -->
<g id="edge23" class="edge">
<title>node_735c6b51&#45;&gt;node_589b8534</title>
<path fill="none" stroke="#e69f00" stroke-width="2" d="M657.12,-1344.46C657.12,-1370.76 657.12,-1416.25 657.12,-1416.25 657.12,-1416.25 870.68,-1416.25 870.68,-1416.25"/>
<polygon fill="#e69f00" stroke="#e69f00" stroke-width="2" points="870.68,-1419.75 880.68,-1416.25 870.68,-1412.75 870.68,-1419.75"/>
</g>
<!-- node_badcf781&#45;&gt;node_da998138 -->
<g id="edge24" class="edge">
<title>node_badcf781&#45;&gt;node_da998138</title>
<path fill="none" stroke="#e69f00" stroke-width="2" d="M441.68,-786.25C441.68,-786.25 598.35,-786.25 598.35,-786.25"/>
<polygon fill="#e69f00" stroke="#e69f00" stroke-width="2" points="598.35,-789.75 608.35,-786.25 598.35,-782.75 598.35,-789.75"/>
</g>
<!-- node_badcf781&#45;&gt;node_9558c125 -->
<g id="edge25" class="edge">
<title>node_badcf781&#45;&gt;node_9558c125</title>
<path fill="none" stroke="#e69f00" stroke-width="2" d="M395.88,-767.77C395.88,-683.09 395.88,-336.25 395.88,-336.25 395.88,-336.25 598.29,-336.25 598.29,-336.25"/>
<polygon fill="#e69f00" stroke="#e69f00" stroke-width="2" points="598.29,-339.75 608.29,-336.25 598.29,-332.75 598.29,-339.75"/>
</g>
<!-- node_d43e37a2 -->
<g id="node30" class="node">
<title>node_d43e37a2</title>
<path fill="#966f33" stroke="black" d="M963.88,-660.25C963.88,-660.25 895.38,-660.25 895.38,-660.25 889.38,-660.25 883.38,-654.25 883.38,-648.25 883.38,-648.25 883.38,-636.25 883.38,-636.25 883.38,-630.25 889.38,-624.25 895.38,-624.25 895.38,-624.25 963.88,-624.25 963.88,-624.25 969.88,-624.25 975.88,-630.25 975.88,-636.25 975.88,-636.25 975.88,-648.25 975.88,-648.25 975.88,-654.25 969.88,-660.25 963.88,-660.25"/>
<text text-anchor="middle" x="929.62" y="-637.2" font-family="Times,serif" font-size="14.00">34: __call__()</text>
</g>
<!-- node_b47312d1 -->
<g id="node32" class="node">
<title>node_b47312d1</title>
<path fill="#6db33f" stroke="black" d="M1241.5,-660.25C1241.5,-660.25 1110,-660.25 1110,-660.25 1104,-660.25 1098,-654.25 1098,-648.25 1098,-648.25 1098,-636.25 1098,-636.25 1098,-630.25 1104,-624.25 1110,-624.25 1110,-624.25 1241.5,-624.25 1241.5,-624.25 1247.5,-624.25 1253.5,-630.25 1253.5,-636.25 1253.5,-636.25 1253.5,-648.25 1253.5,-648.25 1253.5,-654.25 1247.5,-660.25 1241.5,-660.25"/>
<text text-anchor="middle" x="1175.75" y="-637.2" font-family="Times,serif" font-size="14.00">23: _get_default_results()</text>
</g>
<!-- node_d43e37a2&#45;&gt;node_b47312d1 -->
<g id="edge26" class="edge">
<title>node_d43e37a2&#45;&gt;node_b47312d1</title>
<path fill="none" stroke="#56b4e9" stroke-width="2" d="M976.21,-642.25C976.21,-642.25 1084.87,-642.25 1084.87,-642.25"/>
<polygon fill="#56b4e9" stroke="#56b4e9" stroke-width="2" points="1084.87,-645.75 1094.87,-642.25 1084.87,-638.75 1084.87,-645.75"/>
</g>
<!-- node_810aedf2 -->
<g id="node33" class="node">
<title>node_810aedf2</title>
<path fill="#966f33" stroke="black" d="M963.88,-480.25C963.88,-480.25 895.38,-480.25 895.38,-480.25 889.38,-480.25 883.38,-474.25 883.38,-468.25 883.38,-468.25 883.38,-456.25 883.38,-456.25 883.38,-450.25 889.38,-444.25 895.38,-444.25 895.38,-444.25 963.88,-444.25 963.88,-444.25 969.88,-444.25 975.88,-450.25 975.88,-456.25 975.88,-456.25 975.88,-468.25 975.88,-468.25 975.88,-474.25 969.88,-480.25 963.88,-480.25"/>
<text text-anchor="middle" x="929.62" y="-457.2" font-family="Times,serif" font-size="14.00">32: __call__()</text>
</g>
<!-- node_270906a5 -->
<g id="node35" class="node">
<title>node_270906a5</title>
<path fill="#6db33f" stroke="black" d="M1232.12,-480.25C1232.12,-480.25 1119.38,-480.25 1119.38,-480.25 1113.38,-480.25 1107.38,-474.25 1107.38,-468.25 1107.38,-468.25 1107.38,-456.25 1107.38,-456.25 1107.38,-450.25 1113.38,-444.25 1119.38,-444.25 1119.38,-444.25 1232.12,-444.25 1232.12,-444.25 1238.12,-444.25 1244.12,-450.25 1244.12,-456.25 1244.12,-456.25 1244.12,-468.25 1244.12,-468.25 1244.12,-474.25 1238.12,-480.25 1232.12,-480.25"/>
<text text-anchor="middle" x="1175.75" y="-457.2" font-family="Times,serif" font-size="14.00">96: _compute_count()</text>
</g>
<!-- node_810aedf2&#45;&gt;node_270906a5 -->
<g id="edge28" class="edge">
<title>node_810aedf2&#45;&gt;node_270906a5</title>
<path fill="none" stroke="#56b4e9" stroke-width="2" d="M976.21,-456.25C976.21,-456.25 1094,-456.25 1094,-456.25"/>
<polygon fill="#56b4e9" stroke="#56b4e9" stroke-width="2" points="1094,-459.75 1104,-456.25 1094,-452.75 1094,-459.75"/>
</g>
<!-- node_0c9d4f4e -->
<g id="node36" class="node">
<title>node_0c9d4f4e</title>
<path fill="#cccccc" stroke="black" d="M1238.88,-534.25C1238.88,-534.25 1112.62,-534.25 1112.62,-534.25 1106.62,-534.25 1100.62,-528.25 1100.62,-522.25 1100.62,-522.25 1100.62,-510.25 1100.62,-510.25 1100.62,-504.25 1106.62,-498.25 1112.62,-498.25 1112.62,-498.25 1238.88,-498.25 1238.88,-498.25 1244.88,-498.25 1250.88,-504.25 1250.88,-510.25 1250.88,-510.25 1250.88,-522.25 1250.88,-522.25 1250.88,-528.25 1244.88,-534.25 1238.88,-534.25"/>
<text text-anchor="middle" x="1175.75" y="-511.2" font-family="Times,serif" font-size="14.00">47: _compute_velocity()</text>
</g>
<!-- node_810aedf2&#45;&gt;node_0c9d4f4e -->
<g id="edge29" class="edge">
<title>node_810aedf2&#45;&gt;node_0c9d4f4e</title>
<path fill="none" stroke="#56b4e9" stroke-width="2" d="M976.08,-468.25C1008.94,-468.25 1047.17,-468.25 1047.17,-468.25 1047.17,-468.25 1047.17,-516.25 1047.17,-516.25 1047.17,-516.25 1087.18,-516.25 1087.18,-516.25"/>
<polygon fill="#56b4e9" stroke="#56b4e9" stroke-width="2" points="1087.18,-519.75 1097.18,-516.25 1087.18,-512.75 1087.18,-519.75"/>
</g>
<!-- node_5c31427b -->
<g id="node37" class="node">
<title>node_5c31427b</title>
<path fill="#6db33f" stroke="black" d="M1467.88,-534.25C1467.88,-534.25 1346.12,-534.25 1346.12,-534.25 1340.12,-534.25 1334.12,-528.25 1334.12,-522.25 1334.12,-522.25 1334.12,-510.25 1334.12,-510.25 1334.12,-504.25 1340.12,-498.25 1346.12,-498.25 1346.12,-498.25 1467.88,-498.25 1467.88,-498.25 1473.88,-498.25 1479.88,-504.25 1479.88,-510.25 1479.88,-510.25 1479.88,-522.25 1479.88,-522.25 1479.88,-528.25 1473.88,-534.25 1467.88,-534.25"/>
<text text-anchor="middle" x="1407" y="-511.2" font-family="Times,serif" font-size="14.00">22: _parse_timestamp()</text>
</g>
<!-- node_0c9d4f4e&#45;&gt;node_5c31427b -->
<g id="edge30" class="edge">
<title>node_0c9d4f4e&#45;&gt;node_5c31427b</title>
<path fill="none" stroke="#d55e00" stroke-width="2" d="M1251.15,-516.25C1251.15,-516.25 1320.65,-516.25 1320.65,-516.25"/>
<polygon fill="#d55e00" stroke="#d55e00" stroke-width="2" points="1320.65,-519.75 1330.65,-516.25 1320.65,-512.75 1320.65,-519.75"/>
</g>
</g>
</svg>
